<svg version="1.1" id="svg2" inkscape:version="0.48.0 r9654" sodipodi:docname="logo.svg" xmlns:inkscape="https://www.inkscape.org/namespaces/inkscape" xmlns:sodipodi="https://sodipodi.sourceforge.net/DTD/sodipodi-0.dtd" xmlns="http://www.w3.org/2000/svg" x="0" y="0" viewBox="0 0 312 312" xml:space="preserve"><style>.st0{fill:#D33833;} .st1{fill:#EF3D3A;} .st2{fill:#231F20;} .st3{fill:#F0D6B7;} .st4{fill:#335061;} .st5{fill:#6D6B6D;} .st6{fill:#DCD9D8;} .st7{fill:#F7E4CD;} .st8{fill:#49728B;} .st9{fill:#FFFFFF;} .st10{fill:none;stroke:#D33833;stroke-width:1.6;} .st11{fill:#81B0C4;} .st12{fill:#1D1919;}</style><sodipodi:namedview bordercolor="#666666" borderopacity="1" gridtolerance="10" guidetolerance="10" id="namedview4" inkscape:current-layer="g10" inkscape:cx="-65.859" inkscape:cy="172.531" inkscape:pageopacity="0" inkscape:pageshadow="2" inkscape:window-height="844" inkscape:window-maximized="0" inkscape:window-width="1500" inkscape:window-x="2189" inkscape:window-y="496" inkscape:zoom="1" objecttolerance="10" pagecolor="#ffffff" showgrid="false"/><g id="g10" transform="matrix(1.25 0 0 -1.25 0 312)" inkscape:groupmode="layer" inkscape:label="ink_ext_XXXXXX"><g id="g3393"><path id="path22" inkscape:connector-curvature="0" class="st0" d="M194.8 128.4c0-39.5-31.3-71.6-70-71.6s-70 32.1-70 71.6c0 39.5 31.3 71.6 70 71.6s70-32.1 70-71.6"/><path id="path24" inkscape:connector-curvature="0" class="st1" d="M57.7 110.6s-5.1 74.7 63.7 76.8l-4.8 8-37.3-12.5-10.7-12.3-9.3-17.9-5.4-20.7 1.6-13.9"/><path id="path26" inkscape:connector-curvature="0" class="st2" d="M76.9 177.2C64.6 164.6 57 147.3 57 128.1c0-19.2 7.6-36.5 19.9-49.1 12.3-12.6 29.2-20.3 47.9-20.3s35.7 7.8 47.9 20.3c12.3 12.6 19.9 29.9 19.9 49.1 0 19.2-7.6 36.5-19.9 49.1-12.3 12.6-29.2 20.3-47.9 20.3s-35.7-7.7-47.9-20.3zM73.7 75.9C60.6 89.2 52.6 107.7 52.6 128c0 20.4 8.1 38.8 21.1 52.1 13 13.4 31.1 21.6 51.1 21.6 19.9 0 38-8.3 51.1-21.6C189 166.8 197 148.3 197 128s-8.1-38.8-21.1-52.1c-13-13.4-31.1-21.6-51.1-21.6-19.9 0-38 8.3-51.1 21.6"/><path id="path28" inkscape:connector-curvature="0" class="st3" d="M154.3 128l-10.7-1.6-14.4-1.6-9.3-.3-9.1.3-6.9 2.1-6.1 6.7-4.8 13.6-1.1 2.9-6.4 2.1-3.7 6.1-2.7 8.8 2.9 7.7 6.9 2.4 5.6-2.7 2.7-5.9 3.2.5 1.1 1.3-1.1 6.1-.3 7.7 1.6 10.7-.1 6.1 4.9 7.8 8.5 6.1 14.9 6.4 16.5-2.4 14.4-10.4 6.7-10.7 4.3-7.7 1.1-19.2-3.2-16.5-5.9-14.7-5.6-7.7"/><path id="path30" inkscape:connector-curvature="0" class="st4" d="M145.2 81.8l-38.1-1.6v-6.4l3.2-22.4-1.6-1.9L82 58.6l-1.9 3.2L77.5 92l-6.1 18.1-1.3 4.3L91.3 129l6.7 2.7 5.9-7.2 5.1-4.5 5.9-1.9 2.7-.8 3.2-13.9 2.4-2.9 6.1 2.1-4.3-8.3 23.2-10.9-3-1.6"/><path id="path32" inkscape:connector-curvature="0" class="st5" d="M82 174.9l6.9 2.4 5.6-2.7 2.7-5.9 3.2.5.8 3.2-1.6 6.1 1.6 14.7-1.3 8 4.8 5.6 10.4 8.3-2.9 4-14.7-7.1-6.1-4.8-3.5-7.5-5.3-7.2L81 184l1-9.1"/><path id="path34" inkscape:connector-curvature="0" class="st6" d="M92.9 200s4 9.9 20 14.7c16 4.8.8 3.5.8 3.5l-17.3-6.7-6.7-6.7-2.9-5.3 6.1.5"/><path id="path36" inkscape:connector-curvature="0" class="st6" d="M84.9 176.8s-5.6 18.7 15.7 21.3l-.8 3.2-14.7-3.5-4.2-13.8 1.1-9.1 2.9 1.9"/><path id="path38" inkscape:connector-curvature="0" class="st7" d="M93.5 152l3.5 3.4s1.6-.2 1.8-2c.3-1.9 1.1-18.7 12.5-27.7 1-.8-8.5 1.3-8.5 1.3l-8.5 13.3"/><path id="path40" inkscape:connector-curvature="0" class="st7" d="M142.5 157s.6 8.1 2.8 7.5c2.2-.6 2.2-2.8 2.2-2.8s-5.3-3.4-5-4.7"/><path id="path42" inkscape:connector-curvature="0" class="st7" d="M164.7 186.6s-4.4-.9-4.8-4.8c-.4-3.9 4.8-.8 5.6-.5"/><path id="path44" inkscape:connector-curvature="0" class="st7" d="M132.4 186.4s-5.9-.8-5.9-4.5 6.7-3.5 8.5-1.9"/><path id="path46" inkscape:connector-curvature="0" class="st7" d="M96.1 169s-10.1 6.1-11.2.3c-1.1-5.9-3.5-10.1 1.6-16.3l-3.5 1.1-3.2 8.3-1.1 8 6.1 6.4 6.9-.5 4-3.2.4-4.1"/><path id="path48" inkscape:connector-curvature="0" class="st7" d="M100.9 185.8s4.5 23.5 27.5 28c18.9 3.7 28.8-.8 32.5-5.1 0 0-16.8 20-32.8 13.9-16-6.1-27.7-17.3-27.5-24.5.5-12.3.3-12.3.3-12.3"/><path id="path50" inkscape:connector-curvature="0" class="st7" d="M162.8 206.1s-7.7.3-8-6.7c0 0 0-1.1.5-2.1 0 0 6.1 6.9 9.9 3.2"/><path id="path52" inkscape:connector-curvature="0" class="st7" d="M128.9 196.6s-1.3 10.6-10.4 4.5c-5.9-4-5.3-9.6-4.3-10.7 1.1-1.1.8-3.2 1.6-1.7.8 1.5.5 6.3 3.5 7.6 3 1.3 7.8 2.8 9.6.3"/><path id="path54" inkscape:connector-curvature="0" class="st8" d="M103.9 124.5l-25.1-11.2S89.2 72 83.9 59.2l-3.7 1.3-.3 15.7-6.9 29.9-2.9 8.3 26 17.6 7.8-7.5"/><path id="path56" inkscape:connector-curvature="0" class="st8" d="M106.4 101.6l3.6-4.3v-16h-4.3s-.5 11.2-.5 12.5c0 1.3.5 6.1.5 6.1"/><path id="path58" inkscape:connector-curvature="0" class="st8" d="M106.5 78.9l-12-.5L98 76l8.5-1.3"/><path id="path60" inkscape:connector-curvature="0" class="st4" d="M147.6 81.6l9.9.3 2.4-24.5-10.2-1.4-2.1 25.6"/><path id="path62" inkscape:connector-curvature="0" class="st4" d="M150.3 81.6l14.9.8s6.1 15.5 6.1 16.3c0 .8 5.3 22.4 5.3 22.4l-12 12.5-2.4 2.1-6.4-6.4v-24.8l-5.5-22.9"/><path id="path64" inkscape:connector-curvature="0" class="st8" d="M156.9 83.4l-9.3-1.9 1.3-7.5c3.5-1.6 9.3 2.7 9.3 2.7"/><path id="path66" inkscape:connector-curvature="0" class="st8" d="M157.2 130.1l18.7-13.9.5 6.4-14.1 13.1-5.1-5.6"/><path id="path68" inkscape:connector-curvature="0" class="st9" d="M115.8 29l-5.5 22.4-2.8 16.6-.5 12.3 25 1.3h15.5l-1.4-28 2.4-21.6-.3-4-20.3-1.6-12.1 2.6"/><path id="path70" inkscape:connector-curvature="0" class="st6" d="M144.1 81.8s-1.3-27.7 2.7-47.5c0 0-8-5.1-19.7-6.4l22.4.8 2.7 1.6L149 74l-.8 9.3"/><path id="path72" inkscape:connector-curvature="0" class="st9" d="M160.3 59.4l10.4 2.9 19.7 1.1 2.9 9.1-5.3 15.7-6.1.8-8.5-2.7-8.2-4-4.3.8-3.4-1.3"/><path id="path74" inkscape:connector-curvature="0" class="st6" d="M160.1 64.8s6.9 3.2 8 2.9l-2.9 14.7 3.5 1.3s2.4-13.9 2.4-15.5c0 0 14.9-.8 16.3-.8 0 0 3.2 6.1 2.4 12.5l2.9-8.5.3-4.8-4.3-6.4-4.8-1.1-8 .3-2.7 3.5-9.3-1.3-2.9-1.1"/><path id="path76" inkscape:connector-curvature="0" class="st9" d="M149.7 83.7l-5.9 14.9-6.1 8.8s1.3 3.7 3.2 3.7h6.1l5.9-2.1-.5-9.9-2.7-15.4"/><path id="path78" inkscape:connector-curvature="0" class="st6" d="M150.8 88.8s-7.5 14.4-7.5 16.5c0 0 1.3 3.2 3.2 2.4 1.9-.8 5.9-2.9 5.9-2.9v5.1l-9.1 1.9-6.1-.8 10.4-24.5 2.1-.3"/><path id="path80" inkscape:connector-curvature="0" class="st9" d="M118.2 124l-7.4.8-6.9 2.1v-2.4l3.4-3.7L118 116"/><path id="path82" inkscape:connector-curvature="0" class="st6" d="M106.3 123.2s8.3-3.5 10.9-2.7l.3-3.2-7.5 1.6-4.5 3.2.8 1.1"/><path id="path84" inkscape:connector-curvature="0" class="st0" d="M160.3 110.3c-4.5.1-8.6.7-12.2 1.7.2 1.5-.2 2.9.2 4 1 .7 2.7.7 4.2.9-1.3.6-3.1.9-4.6.5 0 1-.5 1.6-.8 2.4 2.5.9 8.5 6.9 11.9 4.9 1.6-.9 2.3-6.3 2.4-8.9.1-2.2-.2-4.4-1.1-5.5"/><path id="path86" inkscape:connector-curvature="0" class="st10" d="M160.3 110.3c-4.5.1-8.6.7-12.2 1.7.2 1.5-.2 2.9.2 4 1 .7 2.7.7 4.2.9-1.3.6-3.1.9-4.6.5 0 1-.5 1.6-.8 2.4 2.5.9 8.5 6.9 11.9 4.9 1.6-.9 2.3-6.3 2.4-8.9.1-2.2-.2-4.4-1.1-5.5z"/><path id="path88" inkscape:connector-curvature="0" class="st0" d="M138.7 117.6v-1c-1.4-.9-3.7-.9-5.2-1.7 2.3-.1 4.1-.7 5.6-1.4 0-.9-.1-1.7-.1-2.6-2.6-1.8-5-4.4-8-6.1-1.4-.8-6.5-2.8-8-2.5-.9.2-.9 1.3-1.3 2.3-.7 2.2-2.4 5.6-2.6 8.9-.2 4.1-.6 11.1 3.8 10.2 3.6-.7 7.8-2.3 10.6-3.9 1.6-.8 2.6-2 5.2-2.2"/><path id="path90" inkscape:connector-curvature="0" class="st10" d="M138.7 117.6v-1c-1.4-.9-3.7-.9-5.2-1.7 2.3-.1 4.1-.7 5.6-1.4 0-.9-.1-1.7-.1-2.6-2.6-1.8-5-4.4-8-6.1-1.4-.8-6.5-2.8-8-2.5-.9.2-.9 1.3-1.3 2.3-.7 2.2-2.4 5.6-2.6 8.9-.2 4.1-.6 11.1 3.8 10.2 3.6-.7 7.8-2.3 10.6-3.9 1.6-.8 2.6-2 5.2-2.2z"/><path id="path92" inkscape:connector-curvature="0" class="st0" d="M141.2 112.7c-.4 2.3-.9 2.9-.7 4.9 6.1 4 7.2-6.9.7-4.9"/><path id="path94" inkscape:connector-curvature="0" class="st10" d="M141.2 112.7c-.4 2.3-.9 2.9-.7 4.9 6.1 4 7.2-6.9.7-4.9z"/><path id="path96" inkscape:connector-curvature="0" class="st1" d="M149.9 110.9s-1.9 2.7-.5 3.5c1.3.8 2.7 0 3.5 1.3.8 1.3 0 2.1.3 3.7s1.6 1.9 2.9 2.1c1.3.3 5.1.8 5.6-.5l-1.6 4.8-3.2 1.1-10.1-5.9-.5-2.9v-5.9"/><path id="path98" inkscape:connector-curvature="0" class="st1" d="M121.9 102.1c-.3 4.2-.7 8.3-1 12.5-.6 6.2 1.5 5.1 6.9 5.1.8 0 5.1-1 5.4-1.6 1.5-3-2.4-2.3 1.7-4.6 3.5-1.9 9.6 1.1 8.2 5.4-.8.9-4.1.3-5.3.9-2.1 1.1-4.2 2.2-6.2 3.2-2.7 1.4-8.8 3.4-11.6 1.5-7.2-4.9.5-17 3-22.1"/><path id="path100" inkscape:connector-curvature="0" class="st2" d="M128.9 196.6c-7.3 1.7-10.9-3-13.1-8-2 .5-1.2 3.2-.7 4.5 1.3 3.6 6.5 8.3 10.8 7.7 1.9-.2 4.4-1.9 3-4.2"/><path id="path102" inkscape:connector-curvature="0" class="st2" d="M164.4 188.3h.3c1.6-3.4 3.1-7 5.1-10-1.4-3.2-10.5-6.1-10.4-.3 2 .9 5.4.2 7.1 1.3-.9 2.7-2.4 5.1-2.1 9"/><path id="path104" inkscape:connector-curvature="0" class="st2" d="M132.7 188.2c1.6-2.9 2.1-5.9 4.3-8 1-1 2.9-2.2 2-4.9-.2-.6-1.9-2.1-2.8-2.3-3.5-1-11.5-.2-8.8 4.1 2.9-.1 6.7-1.9 8.9.2-1.8 2.6-4.7 7.8-3.6 10.9"/><path id="path106" inkscape:connector-curvature="0" class="st2" d="M163.1 159.2c-5.2-3.3-11-7-19.6-6.1-1.8 1.6-2.5 5.1-.7 7.5.9-1.6.3-4.5 2.9-4.9 4.8-.8 10.5 3 14 4.3 2.2 3.6-.2 5-2.1 7.3-4 4.8-9.3 10.8-9.1 18 1.6 1.2 1.8-1.8 2-2.3 2.1-4.9 7.3-11.1 11.1-15.3.9-1 2.5-2 2.7-2.7.3-2.1-1.5-4.5-1.2-5.8"/><path id="path108" inkscape:connector-curvature="0" class="st2" d="M94.3 162.7c-1.6.9-2 5-3.9 5.2-2.7.2-2.2-5.3-2.2-8.5-1.9 1.7-2.2 7-.8 9.7-1.6.8-2.3-.9-3.2-1.4 1.1 8.1 11.9 3.7 10.1-5"/><path id="path110" inkscape:connector-curvature="0" class="st2" d="M166.4 155.8c-2.4-4.6-5.9-9.7-13-9.9-.1 1.5-.3 3.8 0 4.7 5.4.5 8.8 3.3 13 5.2"/><path id="path112" inkscape:connector-curvature="0" class="st2" d="M132.2 152.8c4.5-2.4 12.9-2.6 19.1-2.5.3-1.4.3-3 .3-4.7-7.9-.4-17.3 1.6-19.4 7.2"/><path id="path114" inkscape:connector-curvature="0" class="st2" d="M131.4 148.3c3.1-7.9 13.9-7 23-6.8-.4-1-1.3-2.2-2.3-2.7-2.9-1.2-11-2.1-15 .1-2.6 1.4-4.2 4.5-5.6 6.3-.7.9-4.1 3.1-.1 3.1"/><path id="path116" inkscape:connector-curvature="0" class="st11" d="M162.7 104.8c-3.7-6.3-7.2-12.8-11.6-18.4 1.8 5.4 2.6 14.4 2.9 21.3 3.8 1.8 7.1-.4 8.7-2.9"/><path id="path118" inkscape:connector-curvature="0" class="st2" d="M182.5 82.1c-4.1-.8-7-4.8-11.1-4.6 2.3 3.2 6.1 4.5 11.1 4.6"/><path id="path120" inkscape:connector-curvature="0" class="st2" d="M184.3 75.7c-3.4-.4-7.3-.9-10.7-.6 1.6 2.4 7.8 1.6 10.7.6"/><path id="path122" inkscape:connector-curvature="0" class="st2" d="M185.5 70.1c-3.8-.1-8.5 0-12.1.3 2.1 2.3 9.6.8 12.1-.3"/><path id="path124" inkscape:connector-curvature="0" class="st6" d="M155.6 54.8c.5-4.7 2.4-9.6 2.2-14.8-2.1-.7-3.3-1.3-6.1-1.3-.2 4.4-.8 11.2-.6 15.4 1.3 0 3.4 1 4.5.7"/><path id="path126" inkscape:connector-curvature="0" class="st3" d="M149.5 124.8c-1.9-1.2-3.5-2.8-5.3-4.1-4-.2-6.2.3-9.2 2.6 0 .2.3.1.4.3 4.2-1.9 9.7.8 14.1 1.2"/><path id="path128" inkscape:connector-curvature="0" class="st11" d="M126.7 95.3c1.2 5.2 5.8 7.8 10.1 10.7 4.4-5.5 7-12.7 9.9-19.5-6.8 2-13.9 5.4-20 8.8"/><path id="path130" inkscape:connector-curvature="0" class="st2" d="M151 54.2c-.2-4.2.4-11 .6-15.4 2.8 0 4 .6 6.1 1.3.2 5.2-1.6 10-2.2 14.8-1 .2-3.1-.8-4.5-.7zm-43.6 23.9c1.8-17 4.5-31.3 9.4-46.3 10.9-3.3 24-3.6 33.6-.6-1.8 8.5-1 18.8-2 27.9-.8 6.8-.4 13.7-1.4 20.6-11.6 2.4-28.1.6-39.6-1.6zm42.4 1.5c-.1-7.3.3-14.5.9-21.8 2.8.4 4.7.7 7.3 1.3-.8 7-.7 14.9-2.5 21.2-2-.1-3.7 0-5.7-.7zm14.2 1.2c-1.3.3-2.9 0-4.1 0 .6-5.9 2-12.5 2.6-18.7 2-.1 3.1.9 4.7 1.2 0 5.4-.6 12.9-3.2 17.5zm21.5-19.7c4.2 1 6.8 6.1 5.6 11.3-.8 3.5-2.2 10.1-3.7 12.4-1.1 1.7-4.1 3.8-6.5 2.3-3.9-2.5-10.7-3.2-13.5-6.2 1.4-4.7 1.9-11.2 2.4-17.2 4.8-.3 10.8 1.3 14.8-.4-2.8-.9-6.5-.9-8.9-2.2 2.1-.9 6.8-.7 9.8 0zm-38.7 25.3c-2.9 6.9-5.6 14-9.9 19.5-4.2-2.8-8.9-5.5-10.1-10.7 6-3.3 13.1-6.7 20-8.8zm7.2 21.3c-.3-6.9-1.1-15.9-2.9-21.3 4.4 5.6 7.9 12.1 11.6 18.4-1.6 2.5-4.9 4.7-8.7 2.9zm-8.2 2.9c-1.7.2-3.1-1.9-5.2-1-.5-.5-.9-1.1-1.4-1.7 4.8-5.7 6.9-13.9 10.6-20.6 2 6.5 1.7 13.6 2.2 20.6-2.8-.1-4.3 2.5-6.2 2.7zm-5.2 7c-.2-2 .3-2.6.7-4.9 6.4-2 5.3 8.9-.7 4.9zm-7.2 2.3c-2.8 1.5-7 3.2-10.6 3.9-4.5.9-4-6.1-3.8-10.2.1-3.3 1.8-6.7 2.6-8.9.3-1 .4-2.1 1.3-2.3 1.5-.4 6.6 1.7 8 2.5 3 1.7 5.4 4.3 8 6.1 0 .9.1 1.7.1 2.6-1.6.8-3.4 1.3-5.6 1.4 1.6.8 3.8.8 5.2 1.7v1c-2.5.1-3.5 1.3-5.2 2.2zm-26.6 4.9c-2.3-2.3 6.5-5.5 9.3-5.7 0 1.5.8 2.9.7 3.9-3.4.6-7.7.2-10 1.8zm28.5-1.1c0-.2-.3-.1-.4-.3 3-2.3 5.2-2.8 9.2-2.6 1.8 1.3 3.4 2.9 5.3 4.1-4.3-.5-9.8-3.2-14.1-1.2zm26.1-8c-.1 2.6-.8 8-2.4 8.9-3.4 2-9.4-4-11.9-4.9.3-.8.7-1.4.8-2.4 1.5.4 3.3.1 4.6-.5-1.5-.2-3.2-.2-4.2-.9-.4-1.1.1-2.5-.2-4 3.6-1 7.7-1.5 12.2-1.7.9 1.2 1.2 3.4 1.1 5.5zm-58.5 6.8c-.7.5-5.6 6.9-6.3 6.6-8.9-3.5-17.2-9.6-24.6-15.3 7.1-15.2 9.9-33.8 10.4-51.7 8.1-3.8 15.2-9.2 26.2-9.8-1.3 9-2.4 17-3.2 25.5-2.8 1.2-6.7-.1-9.3.4 0 3.1 3.9 1.4 4.3 3.5.2 1.6-2.2 1.7-1.4 4.2 2-.7 3.1-2.4 5.2-3 2 4.3 0 11.9.3 15.5.1.7.3 3.7 1.9 3.2 1.3-.5-.1-8.2.1-11.6.1-3.1-.4-6.2.9-8.1 10.6 1.4 21.4 2.4 32.9 2.7-2.5 1.1-5.5 2.1-8.8 4-1.8 1-7.4 3.1-7.9 4.8-.8 2.7 2.2 4.1 2.7 6.5-5.4-2.9-6.4 2.8-7.7 6.9-1.1 3.7-1.8 6.4-2.1 8.5-4.7 2.1-9.6 4.4-13.6 7.2zm53.8 5.8c7.4 3.6 8.7-13.4 5.8-18.9.4-1.6 2-2.3 2.6-3.7-4.1-7.4-8.7-14.3-12.9-21.6 3.1 1.9 7.6.3 11.3 1.8 1.3.5 2.3 3.6 3.3 6.1 2.8 6.8 5.8 15.3 7.1 21.8.3 1.5 1.1 4.7.9 6-.3 2.4-3.5 4.1-5.1 5.6-3 2.7-4.9 5.1-8 7.6-1.3-1.9-4-3.1-5-4.7zM86 193.9c-3.5-3.9-2.8-11.1-2.4-16.3 6.4 4 14.8-.3 14.7-7.1 3 .1 1.1 3.8.6 6.2-1.8 7.8 3 16.3.2 23.5-5.3-.5-9.8-2.7-13.1-6.3zm25.2 22.5c-8-2.3-18.2-8.1-21.5-15.2 2.5.4 4.3 1.6 6.8 1.8.9.1 2.2-.4 3.3-.1 2.2.5 4 5.4 5.6 7.2 1.6 1.8 3.5 2.5 4.8 4.1.8.4 2.1.4 2.1 1.6-.2.4-.6.7-1.1.6zm41.6-2.1c-8.3 4.7-22.3 8.2-31.1 3.8-7.1-3.5-16.7-9.4-20-16.8 3.1-7.2-.9-13.7-1.2-21-.1-3.9 1.8-7.3 2-11.5-1-1.7-4.2-1.9-6.5-1.8-.7 3.7-2.1 7.9-5.9 8.3-5.4.6-9.4-3.9-9.7-8.6-.3-5.5 4.2-14.7 10.7-14.1 2.5.2 3.1 2.7 5.8 2.7 1.5-2.9-2.3-3.8-2.6-5.9-.1-.5.3-2.7.5-3.6 1.2-4.8 3.8-11.1 6.3-14.7 3.3-4.7 9.6-5.4 16.5-5.8 1.2 2.6 5.8 2.4 8.7 1.7-3.5 1.4-6.8 4.8-9.5 7.8-3.1 3.4-6.3 7.1-6.5 11.6 5.9-8.2 10.8-15.4 21.5-19 8.1-2.7 17.6 1.2 23.9 5.6 2.6 1.8 4.1 4.7 6 7.4 6.9 9.9 10.1 24.1 9.4 37.8-.3 5.7-.3 11.3-2.2 15.1-2 4-8.7 7.5-12.6 3.9-.7 3.9 3.3 6.3 8 4.9-3.3 4.3-6.8 9.5-11.5 12.2zm15.4-127.7c6.5 3.2 18.6 8.7 22.6 0 1.5-3.2 3.3-8.6 4-11.9 1.1-4.7-1.2-14.4-6-16-4.2-1.4-9.2-1.3-14.2-.3-.6.5-1.3 1.4-1.7 2.3-3.6.1-7-.2-9.9-1.7.3-2.7-1.5-3.1-3.2-3.7-1.3-5 2.5-11.5 1.6-16.1-.6-3.3-4.7-3.8-7.6-4.4-.1-1.8.1-3.3.3-4.8-.7-2.5-3.7-3.9-6.5-4.2-9.4-1.1-23.7-1.6-32.7 1.6-2.5 6.2-4.5 13.7-6.6 20.8-8.8-.9-16 3.8-22.7 6.9-2.3 1.1-5.6 1.7-6.4 3.5-.8 1.8-.5 5.2-.7 8.5-.5 8.3-1 16.3-3.2 24.8-1 3.8-2.7 7.2-3.9 10.9-1.1 3.4-3 7.6-3.5 11-.7 5 4 5.3 7 7.5 4.7 3.4 8.4 5.2 13.4 8.3 1.5.9 6 3.2 6.6 4.2 1 2.1-1.8 5-2.5 6.7-1.2 2.6-1.8 4.8-2 7.3-4.3.7-7.5 3.2-9.4 6.1-3.2 4.7-5.5 13.5-2.7 20.1.2.5 1.3 1.6 1.5 2.4.3 1.6-.6 3.7-.7 5.4-.3 8.6 1.5 16.1 7.3 18.7 2.4 9.4 10.8 12.5 18.8 17.2 3 1.7 6.3 2.9 9.7 4.1 12.2 4.5 30.8 3.6 40.9-4 4.3-3.2 11.1-10.1 13.6-15 6.5-13.1 6-34.9 1.5-50.8-.6-2.1-1.5-5.3-2.7-7.8-.9-1.8-3.5-5.4-3.2-7 .3-1.6 6.1-6 7.3-7.2 2.2-2.1 6.4-5 6.8-7.7.4-2.9-1.3-6.8-2.1-9.6-3-9.2-5.7-17.8-8.8-26.1"/><path id="path132" inkscape:connector-curvature="0" class="st7" d="M125 150.8c.4.5 2.3 1.2 5-.1 0 0-3.2-.5-2.9-5.9l-1.3.3c-.1-.1-1.4 4.8-.8 5.7"/><path id="path134" inkscape:connector-curvature="0" class="st12" d="M148.4 104.9c0-.8-.7-1.5-1.5-1.5s-1.5.7-1.5 1.5.7 1.5 1.5 1.5 1.5-.7 1.5-1.5"/><path id="path136" inkscape:connector-curvature="0" class="st12" d="M149.9 98.1c0-.8-.7-1.5-1.5-1.5s-1.5.7-1.5 1.5.7 1.5 1.5 1.5 1.5-.7 1.5-1.5"/></g></g></svg>