<svg xmlns="http://www.w3.org/2000/svg" viewBox="0 0 64 64"><path d="M40.8 34.8c-1.9 0-3.7.8-5 2.3l-3.1-2.2c.3-.9.5-1.9.5-2.9s-.2-2-.5-2.9l3.1-2.2c1.3 1.4 3.1 2.3 5 2.3a6.7 6.7 0 10-6.7-6.7c0 .7.1 1.3.3 1.9l-3.1 2.2C30 25 28.1 23.8 26 23.5v-3.8c3.1-.7 5.3-3.4 5.3-6.5a6.7 6.7 0 00-13.4 0c0 3.2 2.2 5.8 5.2 6.5v3.8c-4 .7-7.1 4.2-7.1 8.5s3.1 7.8 7.2 8.5v4c-3 .6-5.2 3.3-5.2 6.5a6.7 6.7 0 0013.4 0c0-3.2-2.2-5.9-5.2-6.5v-4c2.1-.4 4-1.5 5.2-3.1l3.2 2.2c-.2.6-.3 1.2-.3 1.9a6.7 6.7 0 0013.4 0c-.2-3.8-3.2-6.7-6.9-6.7zm0-15.6c1.8 0 3.2 1.5 3.2 3.2s-1.5 3.2-3.2 3.2c-1.8 0-3.2-1.5-3.2-3.2s1.4-3.2 3.2-3.2zm-19.5-6.1c0-1.8 1.5-3.2 3.2-3.2s3.2 1.5 3.2 3.2-1.5 3.2-3.2 3.2c-1.7 0-3.2-1.4-3.2-3.2zm6.5 37.8c0 1.8-1.5 3.2-3.2 3.2-1.8 0-3.2-1.5-3.2-3.2 0-1.8 1.5-3.2 3.2-3.2 1.7 0 3.2 1.4 3.2 3.2zm-3.2-14.5c-2.5 0-4.5-2-4.5-4.5s2-4.5 4.5-4.5 4.5 2 4.5 4.5-2.1 4.5-4.5 4.5zm16.2 8.3c-1.8 0-3.2-1.5-3.2-3.2 0-1.8 1.5-3.2 3.2-3.2 1.8 0 3.2 1.5 3.2 3.2 0 1.7-1.4 3.2-3.2 3.2z"/></svg>