<svg xmlns="http://www.w3.org/2000/svg" viewBox="0 0 64 64"><path d="M0 0h64v64H0z"/><path d="M43.9 20.9c-.5-.8-1.2-1.3-1.9-1.5-.8-.2-1.6-.1-2.4.3-.8.4-1.3 1.1-1.5 1.9-.2.8-.1 1.6.3 2.4.4.7 1.1 1.2 1.9 1.4.8.2 1.7.1 2.4-.3s1.2-1.1 1.4-1.9c.3-.6.3-1.5-.2-2.3zm-17.7 2.5c1.8.3 3.5 1.2 4.8 2.5l.6.6 3.2-1.8c-.4-1.3-.4-2.6-.1-3.9.5-1.7 1.5-3.2 3.2-4.1h.1c1.6-.9 3.5-1.1 5.1-.7 1.7.5 3.2 1.5 4.1 3.2.9 1.6 1.1 3.5.7 5.2-.4 1.7-1.5 3.2-3.2 4.1l-.4.3c-1.5.7-3.2.8-4.7.4-1.3-.3-2.4-1-3.3-2L33.1 29c.4 1 .6 2 .6 3.1s-.2 2.1-.6 3.1l3.2 1.8c.9-1 2.1-1.7 3.3-2 1.7-.5 3.6-.3 5.2.7h.1c1.6 1 2.6 2.4 3.1 4.1.4 1.7.3 3.5-.7 5.2H47c-.9 1.6-2.4 2.6-4.1 3.1-1.7.4-3.6.3-5.2-.7-1.6-.9-2.7-2.5-3.2-4.1-.3-1.3-.3-2.6.1-3.9l-3.2-1.8-.6.6c-1.3 1.3-2.9 2.1-4.8 2.4v3.7c1.3.3 2.5.9 3.4 1.9 1.2 1.2 2 2.9 2 4.8s-.8 3.6-2 4.8a6.8 6.8 0 01-4.8 2c-1.9 0-3.6-.8-4.8-2a6.8 6.8 0 01-2-4.8c0-1.9.8-3.6 2-4.8.9-.9 2.1-1.6 3.4-1.9v-3.7c-1.8-.3-3.5-1.2-4.8-2.4C17 36.6 16 34.4 16 32c0-2.4 1-4.6 2.6-6.2 1.3-1.3 2.9-2.2 4.8-2.5v-3.6c-1.3-.3-2.5-.9-3.4-1.9a6.8 6.8 0 01-2-4.8c0-1.9.8-3.6 2-4.8 1.2-1.2 2.9-2 4.8-2s3.6.8 4.8 2c1.2 1.2 2 2.9 2 4.8s-.8 3.6-2 4.8c-.9.9-2.1 1.6-3.4 1.9v3.7zm1.8 5.4c-.8-.8-2-1.3-3.2-1.3-1.3 0-2.4.5-3.2 1.3-.8.8-1.3 2-1.3 3.2 0 1.3.5 2.4 1.3 3.3.8.8 2 1.3 3.2 1.3 1.3 0 2.4-.5 3.2-1.3.8-.8 1.3-2 1.3-3.3 0-1.3-.5-2.4-1.3-3.2zm14 15.7c.8-.2 1.5-.7 1.9-1.5h.1c.4-.7.5-1.6.2-2.3-.2-.8-.7-1.5-1.5-1.9-.7-.4-1.6-.5-2.4-.3-.8.2-1.5.7-1.9 1.5-.4.7-.5 1.6-.3 2.4.2.8.7 1.5 1.5 1.9.7.4 1.6.4 2.4.2zm-17.3 9.6c.9 0 1.7-.4 2.2-.9.6-.6.9-1.4.9-2.2 0-.9-.3-1.7-.9-2.2-.6-.6-1.4-.9-2.2-.9-.9 0-1.7.3-2.2.9-.6.6-.9 1.4-.9 2.2 0 .9.4 1.7.9 2.2.6.6 1.4.9 2.2.9zM27 10.8c-.6-.6-1.4-.9-2.2-.9-.9 0-1.7.4-2.2.9-.6.6-.9 1.4-.9 2.2 0 .9.4 1.7.9 2.2.6.6 1.3.9 2.2.9.9 0 1.7-.3 2.2-.9.6-.6.9-1.4.9-2.2 0-.8-.3-1.6-.9-2.2z" fill="#FFF"/></svg>