<?xml version="1.0" encoding="utf-8"?>
<svg version="1.1" id="layer" xmlns="http://www.w3.org/2000/svg" xmlns:xlink="http://www.w3.org/1999/xlink" x="0px" y="0px"
	 viewBox="0 0 652 652" style="enable-background:new 0 0 652 652;" xml:space="preserve">
<style type="text/css">
	.st0{fill-rule:evenodd;clip-rule:evenodd;fill:#E16B26;}
	.st1{fill-rule:evenodd;clip-rule:evenodd;fill:#434243;}
	.st2{fill:#434243;}
</style>
<g>
	<path class="st0" d="M574.1,327.7c-0.5-1.1-0.8-1.7-1-2.2c-7.5-14.3-15-28.6-22.6-42.8c-0.8-1.4-0.7-2.3,0.4-3.5
		c12-14,23.9-28,35.8-42c0.4-0.5,0.8-1,1-1.9c-3.5,0.9-7,1.8-10.4,2.7c-14.4,3.8-28.9,7.6-43.3,11.5c-1.4,0.4-2,0-2.6-1.1
		c-8.2-13.7-16.5-27.4-24.7-41.1c-0.4-0.7-0.9-1.4-1.8-2c-0.7,3.7-1.3,7.3-2,11c-2.3,12.9-4.6,25.8-6.9,38.7
		c-0.2,1.4-0.6,2.8-0.7,4.2c-0.1,1.3-0.8,1.8-2,2.2c-17,5.3-34,10.7-51,16.1c-0.7,0.2-1.5,0.5-2.3,1.3c13.9,5.5,27.8,11.1,42,16.7
		c-0.5,0.4-0.8,0.7-1.2,1c-8.7,5.6-17.4,11.2-26.1,16.9c-1,0.7-1.9,0.8-3,0.2c-10.4-4.7-20.8-9.3-31.2-13.9
		c-4.7-2.1-8.9-4.9-12.2-8.9c-7.4-9.1-5.9-19.3,3.9-25.6c3.2-2.1,6.9-3.6,10.5-4.8c16.7-5.4,33.4-10.7,50.1-15.9
		c1.4-0.4,2.1-1.1,2.3-2.6c2.2-12.9,4.5-25.8,6.9-38.7c1.2-6.9,1.9-14,5.3-20.3c1.3-2.4,2.8-4.8,4.7-6.8c6.6-7.4,15.9-7.7,22.9-0.6
		c2.4,2.4,4.4,5.2,6.2,8c7.7,12.6,15.3,25.3,22.9,38c0.9,1.5,1.7,1.8,3.4,1.4c18.7-5,37.3-9.9,56-14.9c3.8-1,7.7-1.4,11.7-0.7
		c8.6,1.6,12.4,8.2,9.5,16.5c-1.3,3.8-3.6,7-6.2,10c-13,15.3-26,30.7-39.1,46c-1.1,1.2-1.1,2.2-0.4,3.5
		c7.8,14.7,15.5,29.4,23.3,44.2c1.9,3.5,3.3,7.2,3.3,11.2c0.1,9.2-6.6,16.7-15.8,18.1c-5.1,0.7-9.9-0.3-14.7-1.8
		c-11.7-3.6-23.4-7.2-35.1-10.7c-1.1-0.3-1.5-0.8-1.7-1.9c-1.3-8.2-2.8-16.5-4.2-24.7c0-0.2,0-0.5,0.1-1
		C547.1,320.3,560.3,323.9,574.1,327.7"/>
	<path class="st1" d="M551.3,447.9c-10.6,0-21.1-0.1-31.7,0c-1.4,0-2.2-0.4-3-1.6c-12.5-19-25-38-37.6-57c-0.4-0.6-0.8-1.2-1.5-2.2
		c-2.7,20.5-5.3,40.6-8,60.7H442c0.3-2.7,0.6-5.3,0.9-7.9c2.7-20.6,5.4-41.2,8.1-61.8c2.6-19.7,5.2-39.4,7.8-59
		c0.1-0.6,0.5-1.3,1-1.6c9.5-6.2,19-12.3,28.6-18.5c0.1-0.1,0.3-0.1,0.8-0.2c-2.9,22-5.8,43.8-8.6,65.7c0.1,0.1,0.2,0.2,0.3,0.2
		c15-16.6,29.9-33.2,45.2-50.1c0.4,2.6,0.8,4.7,1.2,6.9c1.1,6.3,2.1,12.5,3.2,18.8c0.2,1.3-0.1,2-0.9,2.9
		c-9.7,10.1-19.3,20.3-29,30.4c-0.4,0.4-0.8,0.9-1.3,1.4c0.3,0.5,0.6,1,0.9,1.4c16.6,23.4,33.3,46.7,50,70.1
		c0.3,0.4,0.7,0.8,1.1,1.1V447.9z"/>
	<path class="st1" d="M150.8,440.2c-0.8,6.1-1.6,11.9-2.4,17.7c-1,7.7-2,15.4-3,23.1c-0.1,0.9-0.4,1.3-1.4,1.3c-7.6,0-15.2,0-22.8,0
		c-0.2,0-0.3-0.1-0.8-0.2c0.5-3.6,0.9-7.3,1.4-10.9c1.7-12.8,3.3-25.5,5-38.3c1.9-14.6,3.5-29.3,6-43.8
		c4.4-25.7,26.2-47.8,51.8-53.3c14.8-3.2,29-1.7,42,6.6c12.9,8.3,20.3,20.4,22,35.6c2.4,21.5-5.5,39.3-20.8,54
		c-10,9.7-22,15.8-35.8,17.9c-14.2,2.1-27.6-0.2-39.6-8.6C152,441,151.5,440.7,150.8,440.2 M223.8,387.2c-0.4-2.2-0.7-5.3-1.7-8.3
		c-4.6-14.3-19.3-22.1-34.4-18.6c-16.6,3.9-28.5,16.9-30.2,33.9c-1.3,12.6,5.5,24.6,18.1,29.2c10.1,3.7,19.9,2.1,28.9-3.3
		C216.5,412.9,223,402.3,223.8,387.2"/>
	<path class="st1" d="M138.4,318.2c-8.5,6.3-16.7,12.4-25,18.6c-1.3-2.1-2.5-4.2-3.9-6.1c-3.6-5-8-8.7-14.5-9.2
		c-5.4-0.4-10,1.4-13.6,5.3c-3.3,3.5-3.7,8.6-0.6,12.6c3.4,4.4,7,8.6,10.8,12.7c6.2,6.8,12.8,13.3,18.9,20
		c5.6,6.2,10.1,13.1,11.5,21.6c1.6,10-0.4,19.6-5.1,28.4c-8.8,16.3-22.6,25.8-40.9,28.8c-8.1,1.3-16.1,1-24-1.3
		c-10.5-3.1-17.7-9.9-22.4-19.6c-1.7-3.4-2.9-7-4.4-10.7c9.2-4.9,18-9.7,27.1-14.5c0.3,0.8,0.5,1.4,0.8,2c1.5,3.1,2.8,6.4,4.7,9.2
		c5.7,8.4,14.8,11,24,6.8c2.4-1.1,4.7-2.6,6.6-4.3c6-5.3,7.1-12.7,2.7-19.3c-2.5-3.8-5.7-7.3-8.8-10.7c-7.4-8.2-15.1-16.1-22.3-24.5
		c-5-5.8-8.3-12.5-9.4-20.2c-1.2-8.4,0.5-16.4,4.9-23.4c10.9-17.6,26.7-26.8,47.6-26c11.9,0.4,21.4,6,28.8,15.3
		C134.1,312.4,136.2,315.2,138.4,318.2"/>
	<path class="st1" d="M340.5,412.7c-1.4,10.6-2.7,20.7-4.1,30.8c-0.1,0.5-0.5,1.2-0.9,1.4c-20.6,9.5-47.7,8.2-64.6-11
		c-9.1-10.3-12.9-22.6-12.3-36.2c1.3-31.5,27.5-59.1,58.7-62.9c18.3-2.2,34.3,2.7,46.7,16.9c8.4,9.7,12.3,21.2,11.8,33.9
		c-0.4,8.4-1.7,16.8-2.8,25.2c-1.5,11.9-3.1,23.7-4.7,35.6c-0.1,0.4-0.1,0.8-0.2,1.4h-24.6c0.3-2.7,0.6-5.4,1-8.1
		c1.8-13.7,3.7-27.4,5.3-41.1c1-8.5,0.4-17-3.5-24.9c-4.1-8.4-11.1-12.9-20.3-13.8c-19-2-37,11.2-41.1,29.8
		c-2.7,12.3,1.5,24.1,11.4,30.7c9.6,6.4,19.8,6.4,30.2,2.3C331.7,420.5,336.2,417.2,340.5,412.7"/>
	<path class="st1" d="M444.2,337.2c-1.1,8.5-2.2,17-3.4,25.5c-5.2,0-10.3,0-15.4,0c-4.1,0-7.9,2.7-9.2,6.6c-0.5,1.5-0.7,3.1-0.9,4.7
		c-2.6,19.6-5.2,39.2-7.7,58.8c-0.7,4.9-1.3,9.9-1.9,14.9h-25.6c0.5-3.8,0.9-7.4,1.4-11.1c1.7-12.7,3.3-25.4,5-38.1
		c1.5-11,2.8-22,4.5-33c2.3-14.7,16.9-27.7,31.7-28.4C429.8,336.9,436.9,337.2,444.2,337.2"/>
	<path class="st2" d="M562.7,436.5v11.2h-2.1v-11.2h-4.1v-1.7h10.3v1.7H562.7z M581.5,447.8v-10.8h-0.1l-4.3,10.8h-1.4l-4.2-10.8
		h-0.1v10.8h-2.1v-13h3.3l3.9,9.9l3.8-9.9h3.3v13H581.5z"/>
	<path class="st2" d="M180.1,306.2h-10.6l-3.4,6.6h-7.5l16.5-30.9h7.2l5.6,30.9h-6.9L180.1,306.2z M172.8,300h6.4l-1.5-9.6
		L172.8,300z"/>
	<path class="st2" d="M208.8,281.9h9.9c5.2,0,8.8,3.1,8.8,8.4c0,6.7-4.7,11.2-11.4,11.2h-4.3l-2,11.3h-6.4L208.8,281.9z M218,288.1
		h-3.8l-1.3,7.1h3.8c2.3,0,4.1-1.5,4.1-4.3C220.8,289.1,219.6,288.1,218,288.1"/>
	<path class="st2" d="M256.8,306.2h-10.6l-3.4,6.6h-7.5l16.5-30.9h7.2l5.6,30.9h-6.9L256.8,306.2z M249.4,300h6.4l-1.5-9.6
		L249.4,300z"/>
	<path class="st2" d="M298.6,311.7c-2.2,1-4.6,1.6-7,1.6c-8.2,0-13.3-6.1-13.3-13.8c0-9.8,8.3-18.1,18.1-18.1c2.5,0,4.7,0.6,6.5,1.6
		l-0.9,7.4c-1.4-1.5-3.5-2.5-6.3-2.5c-5.6,0-10.6,5.1-10.6,11c0,4.5,2.8,8,7.3,8c2.7,0,5.4-1,7.1-2.5L298.6,311.7z"/>
	<polygon class="st2" points="338,300.3 324.6,300.3 322.4,312.8 315.9,312.8 321.4,281.9 327.8,281.9 325.7,294.1 339.1,294.1 
		341.3,281.9 347.7,281.9 342.3,312.8 335.8,312.8 	"/>
	<polygon class="st2" points="361.6,312.8 367.1,281.9 384.2,281.9 383.1,288.1 372.4,288.1 371.4,294.1 381.2,294.1 380.1,300.3 
		370.3,300.3 369.2,306.6 379.9,306.6 378.8,312.8 	"/>
</g>
</svg>
