<svg version="1.1" id="Layer_1" xmlns="http://www.w3.org/2000/svg" x="0" y="0" viewBox="0 0 64 64" xml:space="preserve"><style>.st0{fill:#331E09;stroke:#000000;stroke-width:0.4;} .st1{fill:#F9C89A;stroke:#000000;stroke-width:0.4;stroke-miterlimit:10;} .st2{fill:#A15813;stroke:#000000;stroke-width:0.4;stroke-miterlimit:10;} .st3{fill:#4F2E0E;stroke:#000000;stroke-width:0.4;} .st4{fill:#9E5613;stroke:#000000;stroke-width:0.4;stroke-miterlimit:10;} .st5{fill:#4F2E0E;stroke:#000000;stroke-width:0.4;stroke-miterlimit:10;} .st6{fill:none;stroke:#000000;stroke-width:0.4;stroke-miterlimit:10;} .st7{fill:#6D9758;stroke:#000000;stroke-width:0.4;stroke-miterlimit:10;} .st8{fill:url(#SVGID_1_);} .st9{fill:url(#SVGID_2_);stroke:#000000;stroke-width:0.8;stroke-miterlimit:10;} .st10{fill:url(#SVGID_3_);} .st11{fill:url(#SVGID_4_);stroke:#000000;stroke-width:0.4;} .st12{fill:none;stroke:#000000;stroke-width:8.000000e-02;} .st13{fill:url(#SVGID_5_);stroke:#000000;stroke-width:0.4;} .st14{fill:url(#SVGID_6_);stroke:#000000;stroke-width:0.4;} .st15{fill:#161616;stroke:#000000;stroke-width:0.4;stroke-miterlimit:10;} .st16{fill:url(#SVGID_7_);stroke:#000000;stroke-width:0.4;stroke-miterlimit:10;} .st17{fill:#03468B;stroke:#000000;stroke-width:0.4;stroke-miterlimit:10;} .st18{fill:#FFFFFF;} .st19{fill:none;stroke:#000000;stroke-width:0.8;stroke-miterlimit:10;} .st20{fill:#D8D8D8;stroke:#000000;stroke-width:0.4;stroke-miterlimit:10;} .st21{fill:#FCFCFC;}</style><g transform="matrix(.15988 0 0 .15988 34.206 17.284)"><ellipse class="st0" cx="44.7" cy="205.2" rx="9.7" ry="4.6"/><path class="st1" d="M-28 187.1s3.9 16.5 4.4 21.4c.5 4.9 10.3 7.2 11.3 1.5s4.6-19.6 4.6-19.6l-20.3-3.3zm61.6 3.7s5.2 12.4 5.2 19.3 12.4 8 13.4 3.3c1-4.6 2.6-22.9 2.6-22.9l-21.2.3z"/><path class="st2" d="M-12.9 201.8c-2.1.9-7.9 1.5-10.1.7s.2 8.1.9 10.8c.7 2.8 7.9 2.2 7.9 2.2l1.3-13.7z"/><ellipse class="st3" cx="-25.1" cy="208.9" rx="4.3" ry="10.3"/><ellipse class="st3" cx="-11.6" cy="210" rx="4.4" ry="10.1"/><path class="st4" d="M-41.8 238.8l-.1-12.1c-.1-6.7 7-15.2 21.4-14.8S.6 220.3.6 228 0 241.9-.8 243.5s-37.8 2.1-39.2.6-1.8-5.3-1.8-5.3z"/><path class="st5" d="M-41.8 249.3c-2.4-.6-3.3-3.2-3.5-5.7s1.9-4.5 3.5-4.8c1.2 1.5 3.5 2.2 5.5 2.6 2.1.4 28.5.6 31.6.4s3.9-2.1 4.4-2.8c2.2.8 3.1 3.1 3.2 5.3s-.9 4.3-3.1 5c-2.2.8-13.8 2.6-21.8 2.4-8-.1-19.8-2.4-19.8-2.4z"/><path class="st4" d="M54.3 207.5s-7 4.1-15.9 1c-5.8-.8-7.4-.8-7.2 2.1s.9 10.6-1.8 13.8c-2.7 3.2-5.5 11.6-1.4 15.5s63.8 3.5 66.1 2.8c2.3-.6 3.7-4.8 3.7-4.8s.8-8.8.5-13.4c-.3-4.6-6.7-13.1-17.7-12.8-11 .4-15.5 8.1-20.4 9.2-4.1-3.9-5.7-8.4-5.7-9.3.2-.9-.2-4.1-.2-4.1z"/><path class="st5" d="M41 221.6c3.9 0 6.6-1.7 7-5.7.3-4-.6-6.2-3.5-6.4-2.8-.2-6.3-.8-8-1.9-1.7-1.1-1.9-3.1-1.2-3.9.7-.8 1.9-1.6 1.9-1.6l-.4-1.2s-6.4 2.4-5.8 9.3 4 11.4 10 11.4zm7-12.1c2.1.8 2.6 2.4 2.3 4.2-.3 1.7-1 6.8 2.6 6.6 3.7-.2 4.6-7.4 4.3-10.6-.3-3.3-2.4-6.4-3.4-7.2l-.2 1s.7.5.8 1.8-2.2 3.6-6.4 4.2z"/><path class="st6" d="M60.4 220.9c-2 4.3-3.9 18-2.1 21.8"/><path class="st5" d="M28 239.9s-3 1.8-2.7 4.6 2.4 3.5 5.7 4.3c3.2.8 33.8 1.7 39.3 1.9s24.5-1.2 27.7-2.4 6.1-7-.1-10.3c-2.5 2.7-4.4 3.2-8.4 3.7s-22.7.6-30.4.4l-28.4-.6c-1.9-.2-2.7-1.6-2.7-1.6z"/><path class="st1" d="M14.4 6.3c-.9 1-5.2 5.9-3.1 10.1s13.8 22.2 13.8 22.2S51 25.4 50.2 19.2 44.1 5.7 44.1 5.7l-29.7.6zm63.7 93.6c.9-.9 2.7-5.1-2.3-6.6-4-.5-7 1.4-7.8 2.3-.9.9 1.8 6 3.4 6.2 1.6.2 6.7-1.9 6.7-1.9z"/><path class="st1" d="M81.6 104.6c.8-1.1 2.4-4-1.4-5.8-3.8-1.9-8.9.1-10.1 2.1-1.3 2 2.1 6.4 2.8 6.4s8.7-2.7 8.7-2.7z"/><path class="st1" d="M73.1 83.8l-4.8 8.4s2.7 3.5 3.7 7.9-.7 5.9.8 5.7c1.5-.3 10-2.6 11.6-1.5 1.6 1 3.9 5.2 2.3 8.1-1.5 2.8-6 8.7-12.3 10.2-6.3 1.5-13.8-1.3-16.7-5.2-2.8-4-7.3-16.7-7.5-18.9-.2-2.2 2.8-9 2.8-9L64.9 84l8.2-.2z"/><path class="st1" d="M67.1 91.5c2.1 1.2 5.6 3.9 6.4 8.4s-.9 10.3-3.9 12.7"/><path class="st1" d="M81.8 111.8s-2.1 2.9-6.9 2.2c-4.8-.7-4.5-6.7-2.1-8.3 2.3-1.6 6-2.9 8.5-2.5 2.5.4 3.7 1.5 3.7 1.5"/><path class="st1" d="M75.3 106.9l2.3 4.3s-1.5 1.2-3.2.4c-1.7-.8-1.7-2.1-1.3-3.2.5-1.1 2.2-1.5 2.2-1.5z"/><path class="st7" d="M57.7 13.9s9.5 5 11.1 11.2c4.6 1.5 10.1 8.4 9.6 13.3 5 2.1 7.2 5 7.2 8.2 2.8 2.4 6.9 8.6 1.9 17.5s-7.9 15.1-7.9 15.1l-19.9-1.7-1.7-6 9.3-17.2s-4.1-6.7-8.9-6.9C57.2 52.6 56 59.9 56 59.9l.5 28.4-2.8 1.7-.5 6.4 6.4 13.2 2.2 2.1-5.8 9.1 1.4 2.6 7.9 19.4-.2 2.4 4.6 6-.2 2.6 2.6 6.4-5 11.3-3.1 6.2 2.9 8.9s-8.1 7.4-21.5 7.2-22.5-7-22.5-7l-2.6-1.5s2.9-16.8 2.2-26.3c-.7-9.5-2.8-23.7-2.8-27 0-3.3-.9-12.5-.9-12.5l-1.4 29.7c-.2 10-1.5 23.5-3.3 26.3-1.7 2.7-3.6 3.6-3.6 3.6l1.9 3.3.5 4-2.1 2.6-3.8-1s-7.4 8.6-20.8 7c-13.4-1.5-21.7-8.2-22.5-13.7-3.1-2.2-3.4-3.8-3.4-3.8l8.8-10.1-5-2.9 4.1-7.4s2.9-7.2 3.4-9.6c.5-2.4 2.1-8.2 2.1-8.2l-4.3.2 7-11-.5-7.6 12.9-27.3-.5-4.5-1.7-2.4-1.4-9.5.9-5.2s4.5-5.4 5-9.9-2.1-8.9-2.1-8.9L-41.1 73l-4.3.3-12.4 5.5-2.9-1.2s-1-1.7-1.4-4.5c-.3-2.7 0-15.1 1-16.8 1-1.7 3.4-1.7 3.4-1.7s4-.7 7-2.7c3.1-2.1 22.2-16.2 26.8-19.8S-2.8 14.2-2.8 14.2s5.5-4.3 8.6-5.3C8.9 7.9 11 8 11 8l.2 14.8L25 38.5l15.1-9.1 12-11.2 5.6-4.3z"/><path class="st7" d="M12 6.8l-2 1.3-8.9 14.8 9.7.9-3.5 6.7 18.3 9.7 1.5-1.8L13.8 22c-3.1-3.9-4-12.5-.5-14.8S12 6.8 12 6.8"/><path class="st7" d="M20.3 42.2l27.6-4.6-3.3-11.8 11.8 1.5 1-13.7-12.1-7.8-1.2-.1s3 3.9 3.1 8.6-4.3 8.4-7.9 11.5l-19 16.4zm19.2 9.5l18.3-6.1 1.9 9.8-17.1 11-3.1-14.7zm-19.8-9.2l.7 40-3.1 11.3-.2 11-.5 10.8 2.4 3.6 6.5-1.5m12.1-25.3l-10.1-.9.7 4.8 10.1 1.9-.7-5.8zM53.8 90l-8.9 2.2 1.2 6 7.2-1.9m-45.6-6l7.7.7.3 6.2-9.1-.9 1.1-6zm-19.1-1.5l11.2.3-.5 6.4-10.1-1.5m4.2-48.9l-4.3 7.7L7.9 67.5l5.7-13.9-20.2-8.5zm86.3 38.5s0-5.5 1.7-7.7c-4.1-1.8-14-5.8-19.5-5.2-2.6 3.1-7.2 12.1-5.6 17.7 6-2 23.4-4.8 23.4-4.8zM-50.6 50.8l5.9 8.6 3.7 9.7s-2.3 3.2-4.9 4.4c-2.6 1.2-11.8 5-11.8 5l-2.9-1.2s2.7-1.7 3.1-11.5-2.1-11.1-2.1-11.1l5.8-2.2 3.2-1.7zm87.5 90.8s3.7 13 9.2 21.4c2.7-1.8 21.5-3.1 26.1-3"/><g><path class="st6" d="M-35.6 164.2c3.4.9 18 3 18 3s7.9 1.9 12.1.1c2.2-4.9 8.8-27.6 8.8-27.6s-6.3-7.4-12-8.5c-5.7-1.2-14.6-4.3-14.6-4.3"/><path class="st7" d="M-26 138.9c3.1-.4 18.4 0 27.2 6.3"/><path class="st6" d="M-30.6 167.1l2.4 8.5"/><path class="st7" d="M-35.4 181c5.8 4.1 21 12.4 41.5 3.2"/><path class="st6" d="M23.6 187c7.1 2.8 24.6 3.6 33.8-1.5"/></g><g><path class="st7" d="M53.8 184c9.1 3 22.4 3.5 24 .3 1.5-3.2-13.7-6.7-13.7-6.7"/><path class="st7" d="M46.8 178.2c11.2 1.7 23.8-.5 23.8-4.4s-17.3-3.3-17.3-3.3m3.6-47.5c3.7 4.5 6.6 8.8 9.8 9.8-7.7 1.3-26.3 5.2-29.1 8.4-1.3-3-2.3-4.5-4-5.7 3.3-4.6 23.3-12.5 23.3-12.5z"/></g><path class="st1" d="M-58.7 57.1c-4.6-.5-14.2-2.4-17.7-11.5-2.2-4.5-5.8-5.3-7.5-6.4-2.2-1.9-5.3-3.3-9.7-2.7-4.4.6-11.3-.4-15.7-3-4.4-2.6-9-.9-10.6 1.3s-1.7 5.3-.1 7l2.6 2.7s-6.1.9-6.6 5.4 2.7 6.7 4.8 7.6 3.9 1 3.9 1-2.3 3.1-.6 6.1c1.7 3 5.8 4.3 5.8 4.3s1.9 2.7 4 3.1c2.1.4 14.6 1 14.6 1s5.2-1.9 8.1-2.2 9.9-.4 12.2.6c2.3 1 12.5 1.3 12.5 1.3s1.3-5.5 1.2-8.5c-.2-3-1.2-7.1-1.2-7.1z"/><linearGradient id="SVGID_1_" gradientUnits="userSpaceOnUse" x1="-1575.837" y1="-392.096" x2="-1514.859" y2="-392.096" gradientTransform="matrix(.1771 0 0 -.1771 149.68 151.291)"><stop offset="0" stop-color="#442B1F"/><stop offset="1" stop-color="#442B1F"/></linearGradient><path class="st8" d="M-77.4 194.3c-7 .7-44.5-.5-52.1-5 .5 25.8 7.7 48.6 12.4 53.6 4.6 5 19.1 9.3 34 9.3s24.1-4.5 20.3-10.5c-11.3-17.7-14.6-47.4-14.6-47.4z"/><linearGradient id="SVGID_2_" gradientUnits="userSpaceOnUse" x1="-1437.091" y1="225.474" x2="-1427.114" y2="225.474" gradientTransform="matrix(.1771 0 0 -.1771 149.68 151.291)"><stop offset="0" stop-color="#C8B091"/><stop offset=".199" stop-color="#C5A788"/><stop offset=".529" stop-color="#BC8E6E"/><stop offset=".948" stop-color="#AD6745"/><stop offset=".994" stop-color="#AB6240"/></linearGradient><path class="st9" d="M-93.8 226.1V-3.4h-11.1l.3 197.2c0 9.8.3 17 1.4 21.1 1.1 4.1 4.7 9.5 6.4 10.3 1.6.9 3 .9 3 .9z"/><linearGradient id="SVGID_3_" gradientUnits="userSpaceOnUse" x1="-1432.248" y1="-311.382" x2="-1423.638" y2="-311.382" gradientTransform="matrix(.1771 0 0 -.1771 149.68 151.291)"><stop offset="0" stop-color="#88786F"/><stop offset=".105" stop-color="#806F66"/><stop offset=".281" stop-color="#6B574C"/><stop offset=".503" stop-color="#493023"/><stop offset=".622" stop-color="#34180A"/><stop offset="1" stop-color="#3E2316"/></linearGradient><path class="st10" d="M-94.5 198.3h-9.5s0 14.1 1.2 16.1l8.3.2v-16.3z"/><g><path class="st1" d="M-108.1 49.3s-2.8 4.9-2.7 6.4c.2 1.5 5.5.4 5.8-1.5s-3.1-4.9-3.1-4.9zm2.7 22.9c2.3.1 6.6.4 8.1-1.7s5.3-4 5.3-6.3-.6-3.6-3-5.4c-2.3-1.8-13.7 2.6-14.3 3.7-.6 1.2-1.5 4.4-1.2 5.3.4.9 1.2 2.6 2.3 3.3s2.8 1.1 2.8 1.1z"/><path class="st1" d="M-98.7 62.6l3.1 2.2s3.1-2.4.3-4.3c-2.8-1.8-3.6.9-3.6.9l.2 1.2z"/><path class="st1" d="M-111.9 68.2c1.5.4 1.4 1.5 5.3.4 4-1 8.4-4.5 9.7-7.6 1.3-3.1-5.9-8.2-8.9-7.5-3 .7-8.2 3.2-9.5 4.9-1.3 1.7-1.6 5.1-.7 6.4.8 1.4 4.1 3.4 4.1 3.4zm14-23.9c-.9-1.4-1.9-4.1-3.1-4.9s-5.2-3.9-6.4-4.6c-1.2-.8-4.9-3.6-8.1-2.7s-6.1 2.7-5.7 7c.4 4.3 3.2 4.7 4.6 6.2 1.5 1.5 3.5 3.5 4.7 4.2 1.2.7 4.6 2.3 7.2 2.6s5.1-1.4 6-3c1.1-1.8.8-4.9.8-4.8z"/><path class="st1" d="M-103 41.7l-4.4 7.2s4.8 1.8 6.5-.9c2.5-3.6-2.1-6.3-2.1-6.3z"/><path class="st1" d="M-91.6 37.8c-3.9 1.2-13.5 10.1-15.5 14.8s-1.3 8.9 2.6 10.4c3.9 1.5 9.5-1.9 11.1-4.8s4-12 4-12m-15.1 7.4l8.7 4.4s-1.3 2.4-4 2.7-5.7-1.8-5.8-3.6c0-1.8 1.1-3.5 1.1-3.5zm13.2-.7c.9 1.5 5.6 6 8.2 6.3m-.8 11.6c1.8-.4 3-1.5 4.1-2.3"/><g><linearGradient id="SVGID_4_" gradientUnits="userSpaceOnUse" x1="-705.771" y1="588.215" x2="-699.838" y2="588.215" gradientTransform="matrix(.1771 0 0 -.1771 149.68 151.291)"><stop offset="0" stop-color="#F8FB9B"/><stop offset=".126" stop-color="#F5F892"/><stop offset=".334" stop-color="#EFEF78"/><stop offset=".601" stop-color="#E3E14F"/><stop offset=".911" stop-color="#D4CE16"/><stop offset="1" stop-color="#CFC804"/></linearGradient><circle class="st11" cx="28" cy="47.1" r="3.3"/><circle class="st12" cx="27.9" cy="47.1" r="2.6"/></g><g><linearGradient id="SVGID_5_" gradientUnits="userSpaceOnUse" x1="-711.59" y1="483.429" x2="-705.658" y2="483.429" gradientTransform="matrix(.1771 0 0 -.1771 149.68 151.291)"><stop offset="0" stop-color="#F8FB9B"/><stop offset=".126" stop-color="#F5F892"/><stop offset=".334" stop-color="#EFEF78"/><stop offset=".601" stop-color="#E3E14F"/><stop offset=".911" stop-color="#D4CE16"/><stop offset="1" stop-color="#CFC804"/></linearGradient><circle class="st13" cx="26.9" cy="65.7" r="3.3"/><circle class="st12" cx="26.9" cy="65.6" r="2.6"/></g><g><linearGradient id="SVGID_6_" gradientUnits="userSpaceOnUse" x1="-717.42" y1="378.643" x2="-711.485" y2="378.643" gradientTransform="matrix(.1771 0 0 -.1771 149.68 151.291)"><stop offset="0" stop-color="#F8FB9B"/><stop offset=".126" stop-color="#F5F892"/><stop offset=".334" stop-color="#EFEF78"/><stop offset=".601" stop-color="#E3E14F"/><stop offset=".911" stop-color="#D4CE16"/><stop offset="1" stop-color="#CFC804"/></linearGradient><circle class="st14" cx="25.9" cy="84.2" r="3.3"/><circle class="st12" cx="25.9" cy="84.2" r="2.6"/><path class="st1" d="M1.9-27.3l-2.8-.8s-1.5.3-1.4 1.1 1.3 1.7 1.2 3.1c-.1 1.4-.3 4 .8 5.8s3.5 4.3 4.8 5 1.6-.3 1.6-.3S7.4-1.1 7.7.2s2.1 4.5 5.1 7S20.7 15.3 23 17c2.3 1.7 10 3.2 13.2-.2 3.3-3.4 10.3-11.1 11.1-12.2s3-3.8 2.9-4.8c-.1-1-.4-12-.4-12.5.5.2 1.6-.4 2.2-.9.6-.5 4.4-4.6 4.3-6.4-.1-1.8-1.2-6.8-.8-7.1.4-.3 1-1.7.3-2.1-.8-.3-5.3 3-5.3 3s-.9-11.7-5.1-14.8c-4.2-3-38.5-5.2-40.6-2.4S2-27.3 1.9-27.3z"/></g></g><path d="M7.7-17.3l.4 4.2-1-2.2-1.5-5.9-4.5-6.5-.5-9.4v-1.8L13-43l-3.6 5.4L6.7-29l-.1 4 1.1 2v5.7z"/><path class="st15" d="M53.2-32.6c8.9 5.8-2.7 4.1-12.2.9s-28.6-8.8-33-8.9 29-2.7 34.2-1 11 9 11 9z"/><g><linearGradient id="SVGID_7_" gradientUnits="userSpaceOnUse" x1="-686.879" y1="1050.66" x2="-686.879" y2="1080.476" gradientTransform="matrix(.1771 0 0 -.1771 149.68 151.291)"><stop offset=".372" stop-color="#1D2739"/><stop offset=".994" stop-color="#1D2739"/></linearGradient><path class="st16" d="M-1.6-41.7c-11-5.3-11-12.2.7-19.6s33-7.7 43-5 25.4 12.5 23.5 22.2c-1.9 7.4-10.5 9.3-10.5 9.3l-56.7-6.9z"/><path class="st17" d="M-.6-38l-1.3-5.8c15.9-9.4 45.1-9.7 58.3 6.3-.4 1.2-2.1 4-3.2 4.9C30.6-49.4-.6-38-.6-38z"/></g><path class="st18" d="M22.7-45.8l5.9.8-.3 1.5-10.6-.9 7.7-7-5.3-.3.1-1.7 9.7 1.2-7.2 6.4zm15.6-4.9c2.9 1.7 3.9 4.4 2.8 6.7s-4.8 2.5-6.4 2c-1.6-.5-5.4-3-3.6-6.8 1.2-2.3 4.3-3.6 7.2-1.9zM33-47.8c-1.1 2.4 1.2 3.9 2.2 4.2s3.3.2 3.9-1.2c.6-1.4 0-3.1-1.7-4.1-1.8-1.1-3.7-.3-4.4 1.1zm15.1 0c2.7 1.4 3.9 4.2 3.5 6.9s-3.4 3.4-4.8 3c-1.4-.3-4.9-2.5-4.2-6.9.5-2.6 2.8-4.4 5.5-3zm-3.8 3.9c-.4 2.7 1.7 4 2.6 4.2.9.2 2.7-.2 3-1.9s-.5-3.3-2.2-4.2-3.1.3-3.4 1.9z"/><path d="M47.7-30.8l1.1 6-1.6 4.4.3 4.8v2.5l1.4-2.1.6-7.2 2.7-4.9.2-2.8-4.7-.7z"/><g><path class="st19" d="M45.5-23.6c-.9-.5-3-2.6-4-2.6s-3.9.9-5.2.9c-1.3.1-5.2 1.6-5.6 2m-8.8.2c-.9 0-3.4-.9-4-1.1-.5-.3-3.1-.2-3.1-.2l-2-1.3-2.7 2.5"/><path class="st6" d="M23.4-20.6c.6.3 2 2.2 1.9 3.3-.1 1-1.5 10.9-1.4 11.2.2.3 3.3.8 3.8.4M30-6.8c.6-.1 1.4-.3 2 .5M21.5-19.1c-1.5-3.1-7.4-3.1-9.6.1m20.7.2c.7-3.8 9.4-4.6 11.3-.8"/></g><ellipse cx="16.9" cy="-19.1" rx="2.7" ry="2.1"/><ellipse cx="37.9" cy="-20" rx="2.8" ry="2.2"/><g><path class="st20" d="M18.2-.3c4.1 5.3 16.4 5.1 19.2-.8L35-.3s-5.1.2-6.2.8c-.8 0-1.8.2-1.8.2S21.9 0 21.1.5c-.8.5-2.9-.8-2.9-.8z"/><path class="st6" d="M34.5 3.9c-2.7 3.2-9.8 3.1-12.6.7"/></g><path class="st21" d="M35.2-20.3l3.2.4-2.7 1.2c-.6-.5-.5-1.6-.5-1.6zm-20.7 1l3.2.4-2.7 1.2c-.5-.5-.5-1.6-.5-1.6z"/><path class="st6" d="M53.7-25.8c-.6 1-2.3 3.2-2.4 4.2-.1 1 .7 3.7.6 4.2m1-1.9c-.1-.7-.6-2.6-1.3-3M.2-25.8c.6.9 3.9 3.6 4.1 4.7s-.7 2.8-.4 3.7l.8 2.4m-2.1-3.4c-.2-1 .1-3.3 1-3.5"/></g></svg>